<svg xmlns="http://www.w3.org/2000/svg" xmlns:xlink="http://www.w3.org/1999/xlink" viewBox="0 0 668.74 422.44"><defs><style>.cls-1,.cls-11,.cls-2,.cls-23,.cls-25,.cls-27,.cls-28,.cls-29,.cls-35,.cls-5,.cls-9{fill:none;}.cls-2{stroke:#ed725a;}.cls-11,.cls-2,.cls-23,.cls-25,.cls-27,.cls-28,.cls-29,.cls-35,.cls-5,.cls-9{stroke-miterlimit:10;}.cls-2,.cls-27,.cls-28,.cls-29,.cls-5{stroke-width:1.5px;}.cls-3{fill:#fff;}.cls-4{fill:#afb9e8;}.cls-5{stroke:#fff;}.cls-6{fill:#909df4;}.cls-7{fill:#ef9748;}.cls-8{fill:#ffcaa3;}.cls-9{stroke:#000;}.cls-10{fill:#1e1611;}.cls-11{stroke:#572a2f;}.cls-12{fill:#ffc36c;}.cls-13{fill:#d4bcdd;}.cls-14{fill:#fd9;}.cls-15{fill:#735d9d;}.cls-16{fill:#e27769;}.cls-17{fill:#2c221d;}.cls-18{fill:#d5d8bc;}.cls-19{fill:#b5ae6b;}.cls-20{clip-path:url(#clip-path);}.cls-21{fill:#4c4139;}.cls-22{fill:#d16159;}.cls-23{stroke:#635149;}.cls-24{fill:#f9d4bb;}.cls-25{stroke:#6d574e;}.cls-26{fill:#893d33;}.cls-27{stroke:#8f96db;}.cls-28{stroke:#fd9;}.cls-29{stroke:#909df4;}.cls-30{fill:#ed725a;}.cls-31{fill:#c5b3dd;}.cls-32{fill:#a29dce;}.cls-33{fill:#a04b4b;}.cls-34{fill:#fcddd2;}.cls-35{stroke:#d8a798;}</style><clipPath id="clip-path" transform="translate(-31.54 -39.76)"><rect class="cls-1" x="410.12" y="85.81" width="235.44" height="133.18" rx="6.27"/></clipPath></defs><g id="OBJECTS"><path class="cls-2" d="M384.5,103.93c-42.14-9.91-72.82-.28-107.86,11.81-17.27,6-34.76,12.26-53,14.66-13.59,1.79-27.32,2.27-41,3.62a350.06,350.06,0,0,0-42.27,6.32c-23.44,5.27-64.28,15-61.77,46.54,1,12.64,9.63,24.13,8.76,36.77-1.12,16.22-16.24,28.77-26.15,40.23-13.68,15.81-26,33.35-23.72,55.33,1.82,17.73,13.33,33.31,27.53,44.09s31,17.46,47.55,24.06c25.22,10.05,46.54,21.83,66.37,40.53,11.49,10.83,23.73,21.56,38.62,26.81,20,7.06,45.52.92,53.67-20.27,4.44-11.55,5.69-25,12.58-35.5C291,388.12,306,379,319.16,380.77c21.5,2.85,29.89,18.8,40.14,35.58,5,8.2,10.94,15.74,19.35,20.66,14.42,8.44,28.82,5.15,44,1.72a492.41,492.41,0,0,1,49.73-8.68c28.37-3.39,56.91-1.87,85.17,1.69,26.84,3.39,65.81,21,87.94-2.91,9.7-10.5,11.63-24.86,8.1-38.26-5.06-19.21-16-40.53-15.36-60.48.86-29.44,14.14-49,30.36-72.06,7.77-11,13.75-23.26,13.47-37-.64-31.72-20.52-56.07-41.25-77.93s-41.35-46.68-62.28-66" transform="translate(-31.54 -39.76)"/><path class="cls-2" d="M685.8,136.31a8.35,8.35,0,1,1-8.34-8.34A8.33,8.33,0,0,1,685.8,136.31Z" transform="translate(-31.54 -39.76)"/><path class="cls-2" d="M406.48,418.79a8.34,8.34,0,1,1-8.34-8.34A8.33,8.33,0,0,1,406.48,418.79Z" transform="translate(-31.54 -39.76)"/><path class="cls-3" d="M377.34,55.52a6.27,6.27,0,0,1,6.28,6.27v124a6.28,6.28,0,0,1-6.28,6.27H136.71a6.27,6.27,0,0,1-6.27-6.27v-124a6.27,6.27,0,0,1,6.27-6.27H377.34m0-1.5H136.71a7.77,7.77,0,0,0-7.77,7.77v124a7.77,7.77,0,0,0,7.77,7.77H377.34a7.78,7.78,0,0,0,7.78-7.77v-124A7.78,7.78,0,0,0,377.34,54Z" transform="translate(-31.54 -39.76)"/><path class="cls-4" d="M98.9,32.48H352.08a0,0,0,0,1,0,0V146a6.27,6.27,0,0,1-6.27,6.27H105.17A6.27,6.27,0,0,1,98.9,146V32.48a0,0,0,0,1,0,0Z"/><path class="cls-5" d="M145.17,64.37a3.59,3.59,0,1,1-3.59-3.59A3.59,3.59,0,0,1,145.17,64.37Z" transform="translate(-31.54 -39.76)"/><path class="cls-5" d="M159.08,64.37a3.59,3.59,0,1,1-3.59-3.59A3.59,3.59,0,0,1,159.08,64.37Z" transform="translate(-31.54 -39.76)"/><line class="cls-5" x1="98.9" y1="32.48" x2="352.08" y2="32.48"/><path class="cls-6" d="M363.26,174.65c-2.54-3.37-6.89-6.48-10.28-4.15-2.85,1.95-3,6.35-2.73,10a142.86,142.86,0,0,0-28.41-30c-5.81-4.56-12.5-8.78-19.64-8.23s-10.85,10.58-9,18.12c-19.51-25.83-41.26-44.15-63.92-60C221.58,95,213,89.79,203.82,86.71c-9.75-3.28-23.23-7.13-32,.49-3.77,3.26-5.74,8.24-6.28,13.21-.66,6.14.38,12.63,2,18.55,4,14.15,10.43,27.5,17.88,40.08s23.84,33.24,23.84,33.24H371A42.92,42.92,0,0,0,363.26,174.65Z" transform="translate(-31.54 -39.76)"/><path class="cls-7" d="M278.2,167s-31.06-26.93-44.38-31.5-40.69,2.77-41,2.77-24.5,53.81-24.5,53.81h99.07Z" transform="translate(-31.54 -39.76)"/><path class="cls-8" d="M337.19,240.1q3.4,3.54,7.06,6.82c2.35,2.11,4.92,4,7.21,6.15.57.54,1.09,1.12,1.6,1.7a38.94,38.94,0,0,1,5.13,6.74,3.55,3.55,0,0,0,.63.93,1.09,1.09,0,0,0,1,.32,1.34,1.34,0,0,0,.77-.84,7.37,7.37,0,0,0,.1-4.78c-.26-1-.62-2-.9-3a6.47,6.47,0,0,1-.45-2.59c6.65,2.78,12.06,7.81,18.13,11.71,1.24.8,4,1.09,4.44,0,.61-1.46-8.24-8-12.29-12.35a64.19,64.19,0,0,1,9.05,5.25,21.53,21.53,0,0,0,6.28,3.37c1.28.4,4.22,1,3.62-1.33a3.88,3.88,0,0,0-1.2-1.73c-4-3.85-8.75-6.57-12.91-10.19,4.68,1.85,9,5.16,14,5.33a2.14,2.14,0,0,0,1.41-.31,1.25,1.25,0,0,0,.4-1.74,4.61,4.61,0,0,0-1.68-1.44c-4.67-2.86-9.54-6-14.21-8.88a62.46,62.46,0,0,1,7.24,2.9,15.2,15.2,0,0,0,7.59,1.44c.83-.1,1.86-.64,1.67-1.45a1.65,1.65,0,0,0-.78-.89l-17-11.65c-1.59-1.09-3.19-2.18-4.82-3.21-2-1.24-4.24-2.15-6.07-3.55-1.42-1.08-3.15-1.89-4.68-2.83-3.78-2.32-7.44-4.83-11-7.49" transform="translate(-31.54 -39.76)"/><path class="cls-9" d="M359.49,251.51c-1.78-.78-3.6-1.51-5.44-2.17" transform="translate(-31.54 -39.76)"/><path class="cls-9" d="M369.91,250.89a82.5,82.5,0,0,0-7.52-4.59" transform="translate(-31.54 -39.76)"/><path class="cls-9" d="M374.5,246.17l-6-3.79" transform="translate(-31.54 -39.76)"/><path class="cls-9" d="M376.69,240.47a38.31,38.31,0,0,1-4.27-2.75" transform="translate(-31.54 -39.76)"/><path class="cls-7" d="M241,136.31c12.27,3.86,18.43,4.21,29.4,11C282,154.56,310.88,185,310.88,185s38.93,27.45,53.52,37.83l-26.21,25c-29-17.33-58.74-38-80.72-63.67" transform="translate(-31.54 -39.76)"/><path class="cls-8" d="M196.46,186.83S208.63,180.3,214,179c7.42-1.87,16.22-2.4,18.57-1.68,1.11.34,5.26,2.05,7.44,4.59,2.31,1,3.25,1.51,4.62,2.09s2,2.19,3.45,3.42,3,4.66,3,4.66-10.95,0-14,.14-6.39,6-13.27,8" transform="translate(-31.54 -39.76)"/><path class="cls-7" d="M221.53,131.47c-8.44-.07-16.66-2.27-25.08-2.27-15.3,0-24.08,8-31.52,19.14a183,183,0,0,0-14.94,28c-4.66,10.8-9.88,22.82-11.24,34.61a27.41,27.41,0,0,0,2.65,15.76c4.61,8.86,14.86,10.41,20.84,11.08s16.45-1.36,21.59-4.54a312.85,312.85,0,0,0,44.86-33.53l-29.05-14.89-13.94,5.45,17.6-32.54" transform="translate(-31.54 -39.76)"/><line class="cls-9" x1="170.33" y1="120.66" x2="154.16" y2="150.56"/><path class="cls-9" d="M199.64,184.87l-25,9.7c-5.69,2.2-11.26,6.57-15.79,10.63" transform="translate(-31.54 -39.76)"/><line class="cls-9" x1="158.12" y1="149.17" x2="188.22" y2="167.69"/><path class="cls-9" d="M270.56,174.44c-4,6.58-9.5,17.6-9.5,17.6" transform="translate(-31.54 -39.76)"/><line class="cls-9" x1="322.24" y1="175.49" x2="293.03" y2="199.81"/><path class="cls-9" d="M238.86,185a52.36,52.36,0,0,0,6.44,1.27,4.57,4.57,0,0,1,1.94.54" transform="translate(-31.54 -39.76)"/><path class="cls-9" d="M240.73,182.44a9.91,9.91,0,0,0-1.17-.48,17.7,17.7,0,0,0-6.48-1.49" transform="translate(-31.54 -39.76)"/><path class="cls-9" d="M233.93,193.4a8,8,0,0,1,3.92-1.33c2.88-.3,6,.32,8.73-.76" transform="translate(-31.54 -39.76)"/><path class="cls-9" d="M125.69,213.08a31.84,31.84,0,0,0,18.1,27" transform="translate(-31.54 -39.76)"/><path class="cls-9" d="M117.63,212.58c.23,7.44,3.3,14.65,8.06,18.94" transform="translate(-31.54 -39.76)"/><path class="cls-9" d="M281.51,140.45a208.18,208.18,0,0,1,24.64,24.69" transform="translate(-31.54 -39.76)"/><path class="cls-9" d="M281.7,131.53a103.06,103.06,0,0,1,16.9,15.77" transform="translate(-31.54 -39.76)"/><path class="cls-7" d="M210,146.64a79.85,79.85,0,0,1-13.34-6.74,23.56,23.56,0,0,1-5.13-3.71,8.15,8.15,0,0,1-2.51-5.65,9.11,9.11,0,0,1,2.23-5.3c3.78-4.76,9.9-7.24,16-7.79s12.14.62,18.06,2c8.91,2.1,18,4.9,24.86,10.94a18.52,18.52,0,0,1,4.77,6,17.52,17.52,0,0,1,1,10.45A52.54,52.54,0,0,1,252.5,157" transform="translate(-31.54 -39.76)"/><path class="cls-8" d="M234,111.46l-12,3.49.26,6-6.06,10.34s14.33,5.55,19.72,16.86a7.81,7.81,0,0,0,8.21-3.88L250,130.47" transform="translate(-31.54 -39.76)"/><path class="cls-8" d="M262.21,123.48c1-5.94,2.28-12.36,2.18-17.08-.08-4-.7-10.05-3.28-13.18-3.33-4-9.38-4.1-14.47-4.67-8.35-.93-14.11,6.63-16.59,13.7a25,25,0,0,0,0,16.32c2.3,7.31,10.45,17.13,21.05,15.92C256.75,133.85,261.12,129.76,262.21,123.48Z" transform="translate(-31.54 -39.76)"/><path d="M252,110.51c-.11.88-.74,1.53-1.41,1.46a1.46,1.46,0,0,1-1-1.74c.1-.89.73-1.54,1.41-1.46A1.47,1.47,0,0,1,252,110.51Z" transform="translate(-31.54 -39.76)"/><path d="M263.52,111.61c-.1.88-.73,1.53-1.41,1.45a1.45,1.45,0,0,1-1-1.74c.1-.88.73-1.53,1.41-1.46A1.47,1.47,0,0,1,263.52,111.61Z" transform="translate(-31.54 -39.76)"/><path class="cls-9" d="M258.4,109.65a48.84,48.84,0,0,0,0,6.17c0,1.27,0,3.51-1.6,3.8a11.56,11.56,0,0,1-3.44-.46" transform="translate(-31.54 -39.76)"/><path class="cls-3" d="M254.24,122.79l-4.33-3.64s-3.18,4.15-1.54,5.66C251,127.24,254.24,122.79,254.24,122.79Z" transform="translate(-31.54 -39.76)"/><path class="cls-10" d="M261.26,94.48c1.91,3,3,5.39,3.05,14.35a10.35,10.35,0,0,0,2.66-.92,3.56,3.56,0,0,0,1.78-2.09c.45-1.69-.81-3.36-.88-5.1a6.25,6.25,0,0,1,1.21-3.52,6.6,6.6,0,0,0,1.27-2.59,4.32,4.32,0,0,0-1.69-3.56c-2.26-2-5.28-2.87-7.88-4.37-1.26-.73-1.93-1.87-3.1-2.73a25.08,25.08,0,0,0-4.2-2.51,28.07,28.07,0,0,0-10.91-2.67A26.22,26.22,0,0,0,223,86.29c-6.73,6.74-9.43,19.59-5.21,27,2.38,4.19,4.56,7.64,4.56,7.64.28.43,6.09-4.79,6.45-5.5a12.91,12.91,0,0,0,.72-2.31c.75-2.64,3.38-3.08,5.63-3.9,3.28-1.21,4.92-4.13,5.56-7.43a34.73,34.73,0,0,0,.47-5.77c0,.43,2.65,1.37,3,1.49a22.6,22.6,0,0,0,12.31.35,8.25,8.25,0,0,0,3.35-1.52C260.12,96.16,261.68,94.91,261.26,94.48Z" transform="translate(-31.54 -39.76)"/><path class="cls-9" d="M236.81,129.19a20,20,0,0,0,12.31,5.4" transform="translate(-31.54 -39.76)"/><path class="cls-9" d="M245,104.23a4.82,4.82,0,0,1,7.87-1" transform="translate(-31.54 -39.76)"/><path class="cls-9" d="M259.66,104.42a2.64,2.64,0,0,1,2.6-1.76,2.5,2.5,0,0,1,1.77,2.5" transform="translate(-31.54 -39.76)"/><path class="cls-11" d="M256.13,112.78a5.59,5.59,0,0,1-7.15,3.57A5.8,5.8,0,0,1,245.5,109a5.6,5.6,0,0,1,7.15-3.57A5.8,5.8,0,0,1,256.13,112.78Z" transform="translate(-31.54 -39.76)"/><path class="cls-11" d="M266.91,114.19c-.55,3.13-2.57,5.38-4.51,5s-3.09-3.19-2.54-6.32,2.56-5.38,4.51-5S267.45,111.06,266.91,114.19Z" transform="translate(-31.54 -39.76)"/><line class="cls-11" x1="228.83" y1="71.48" x2="224.88" y2="70.74"/><line class="cls-11" x1="214.19" y1="68.7" x2="202.28" y2="69.61"/><path class="cls-8" d="M237.23,111.52c-.06-2.89-4-5.15-6.52-4.23-6.16,2.21-4.08,13.25,1.64,14.3,1.62.3,3.94-.33,4.52-2.17" transform="translate(-31.54 -39.76)"/><line class="cls-9" x1="198.72" y1="72.45" x2="204.02" y2="77.24"/><path class="cls-9" d="M234.51,108a7.47,7.47,0,0,1,3,3.38" transform="translate(-31.54 -39.76)"/><path class="cls-9" d="M227.19,116.39c.79,2.36,2.41,4.86,5,5.28a4.09,4.09,0,0,0,4.55-2.33" transform="translate(-31.54 -39.76)"/><path class="cls-12" d="M213.59,100.15a39.06,39.06,0,0,1,1.81-11.47,19.78,19.78,0,0,1,6.52-9.45,25.53,25.53,0,0,1,5.67-3,31.41,31.41,0,0,1,5.16-1.68c6.63-1.41,13.51.69,19.72,3.4" transform="translate(-31.54 -39.76)"/><path class="cls-12" d="M255.44,78.46a14.41,14.41,0,0,0-10-3.62,14.75,14.75,0,0,0-2.09.27c-4.81,1-9.15,3.47-13.31,6-5.57,3.44-11.13,7.15-15.21,12.27a11.58,11.58,0,0,0-2.91,6.33,10.33,10.33,0,0,0,.65,3.85,25.14,25.14,0,0,0,3.84,6.76c12.24-11.45,26-20.51,41.87-25.89A9,9,0,0,0,255.44,78.46Z" transform="translate(-31.54 -39.76)"/><path class="cls-9" d="M214.39,94a55.6,55.6,0,0,1,29.51-19.2" transform="translate(-31.54 -39.76)"/><path class="cls-9" d="M219.76,95.65a28.68,28.68,0,0,0,5.31,7.29" transform="translate(-31.54 -39.76)"/><path class="cls-9" d="M231.83,84.82a49.12,49.12,0,0,0,5.79,9.32" transform="translate(-31.54 -39.76)"/><path class="cls-9" d="M244.64,77.93a41,41,0,0,1,6.69,9.17" transform="translate(-31.54 -39.76)"/><path class="cls-9" d="M249.06,76.37a44.65,44.65,0,0,1,5.74,9.36" transform="translate(-31.54 -39.76)"/><path class="cls-9" d="M213.75,97.26A17.09,17.09,0,0,0,220,107.43" transform="translate(-31.54 -39.76)"/><path class="cls-9" d="M206.68,127.47c5.85,2.19,11.76,4.4,17,7.85s10.48,8.3,12.34,14.26" transform="translate(-31.54 -39.76)"/><path class="cls-9" d="M240,147.77a12.23,12.23,0,0,0,6-6.3" transform="translate(-31.54 -39.76)"/><path class="cls-9" d="M189,129.91c2.71,15.54,23.21,12.57,32.76,17.39" transform="translate(-31.54 -39.76)"/><path class="cls-9" d="M256.16,141.2a12,12,0,0,1-2.53,5.9c-2.12,2.47-5.43,3.49-8.56,4.39" transform="translate(-31.54 -39.76)"/><path class="cls-9" d="M247.9,147.77c1.42,9.77,2.86,20.72,2.41,30.59" transform="translate(-31.54 -39.76)"/><path class="cls-9" d="M226.18,145.52c1.48,4.06.78,15.07.62,25" transform="translate(-31.54 -39.76)"/><path class="cls-13" d="M64.95,233.31H300.13a0,0,0,0,1,0,0V384.06a6.27,6.27,0,0,1-6.27,6.27H71.22a6.27,6.27,0,0,1-6.27-6.27V233.31A0,0,0,0,1,64.95,233.31Z"/><path class="cls-3" d="M325.39,252.75a6.28,6.28,0,0,1,6.28,6.27v164.8a6.28,6.28,0,0,1-6.28,6.27H102.76a6.27,6.27,0,0,1-6.27-6.27V259a6.27,6.27,0,0,1,6.27-6.27H325.39m0-1.5H102.76A7.78,7.78,0,0,0,95,259v164.8a7.77,7.77,0,0,0,7.77,7.77H325.39a7.78,7.78,0,0,0,7.78-7.77V259a7.79,7.79,0,0,0-7.78-7.77Z" transform="translate(-31.54 -39.76)"/><path class="cls-5" d="M114.39,263.51a4.37,4.37,0,1,1-4.37-4.36A4.37,4.37,0,0,1,114.39,263.51Z" transform="translate(-31.54 -39.76)"/><circle class="cls-5" cx="95.39" cy="223.74" r="4.36"/><line class="cls-5" x1="64.95" y1="233.31" x2="300.13" y2="233.31"/><path class="cls-14" d="M309.07,430.09a84.82,84.82,0,0,0-12.72-21.55c-3.22-4-7-7.75-11.71-9.5s-10.64-1-13.85,3c-2.46,3-2.93,7.25-3.3,11.19-7.8-8.36-15.69-16.82-25.2-23s-21-10.62-32.06-8.2C198,384.67,198,400.11,198,400.11s-7.49-10.5-8.16-11.48a172.2,172.2,0,0,0-16.7-20.47c-5.92-6.32-11.55-13-18.21-18.5s-17.43-12.52-26.36-9.19c-4.65,1.73-5.93,5.76-4.9,10.41,1,4.35,1.47,8.71,2.82,13-7.51-8.37-16.05-16.08-26-21.29-7.15-3.76-22.07-10.14-29.49-4a10.09,10.09,0,0,0-3.18,7.55C67.49,363.47,80,382.09,90,394.89c10.32,13.13,22.76,24.76,35.65,35.2Z" transform="translate(-31.54 -39.76)"/><path class="cls-15" d="M263.88,351.83c-1.33,7.37-.94,15-.9,22.5s.64,12.45-2.08,19.28c-2.46,6.16-7.59,8.26-10.27,14.3-1.37,3.07-6.54,22.17-6.54,22.17H174.62s-2-30,8.76-55.63,24.11-30.21,24.11-30.21L247,334Z" transform="translate(-31.54 -39.76)"/><path class="cls-16" d="M354.9,307.05c2.06-2.48,4.94-4,7.41-6.07,2.27-1.86,4-4.47,5.86-6.73a101.86,101.86,0,0,0,6.1-8.88,56.24,56.24,0,0,1,7.63-8.47,4.21,4.21,0,0,0,1-1.25,1.69,1.69,0,0,0-1.07-2.3,9.91,9.91,0,0,0-6,.69c-1.14.42-5,1.78-5.22-.38-.27-2.45,1.78-6,2.57-8.3,1-2.95,2.07-5.91,2.9-8.93s.61-8.39-.92-8.48-.38.83-.78,1c.64-.84-.47-2.78-1.39-3.35s-2.11,1.29-2.38,2.3c.31-1-.56-2.62-1.29-2.68-1.07-.1-1.9.91-2.54,1.74a8.51,8.51,0,0,1-2.1,2.29,6.79,6.79,0,0,0-.31-2.09c-.7-.4-1.5.25-2,.85-10.24,12.09-17.17,27.08-28.53,38.72" transform="translate(-31.54 -39.76)"/><path class="cls-9" d="M370.85,272c0,3,0,5.95-.23,8.92" transform="translate(-31.54 -39.76)"/><path class="cls-9" d="M374.06,248.28c-.89,2.81-2.62,5.19-3.92,7.8-2.06,4.16-3.91,8.42-5.82,12.65" transform="translate(-31.54 -39.76)"/><path class="cls-9" d="M370.54,247.73a32.32,32.32,0,0,1-2.14,3.81c-.85,1.3-1.79,2.54-2.71,3.81a95.9,95.9,0,0,0-7,11.36" transform="translate(-31.54 -39.76)"/><path class="cls-9" d="M364.33,249.74a18,18,0,0,1-2.88,3.92,63.77,63.77,0,0,0-8.52,12.63" transform="translate(-31.54 -39.76)"/><path class="cls-15" d="M227.07,338c12.43-5.2,20.58-10.66,32.88-16.2,11.1-5,26.67-9.1,37.61-14.43,15.13-7.38,29.32-15.52,41.75-26.68l22.6,23.78S330,337.06,318.83,343.41c-26.86,15.3-36.64,18.17-64.57,32.77" transform="translate(-31.54 -39.76)"/><path class="cls-9" d="M262.66,372.09a42.8,42.8,0,0,1,3.75-16.32" transform="translate(-31.54 -39.76)"/><line class="cls-9" x1="300.24" y1="247.2" x2="322.64" y2="272.35"/><path class="cls-16" d="M223.46,407c9.48.18,18.91,1.67,27.13,6.67a15.19,15.19,0,0,1,7.23,10.05,36.41,36.41,0,0,1,.87,11.63.89.89,0,0,1-.63.78,2.9,2.9,0,0,1-1.34-.33s.81,3.82,0,4.61c-.6.56-1.72-.2-2.15-.66a11,11,0,0,1-1.16-1.91s.56,2.2.08,2.58c-.7.56-2.75-.86-3.23-2.3-.3.82-.79,1.57-1.54,1.37-2.37-.63-4.22-4-6.17-5.64-2.59-2.21-6.07-2.36-9.3-2.31a39.1,39.1,0,0,1-4.46-.09,43.37,43.37,0,0,1-4.37-1,59.64,59.64,0,0,0-8.43-1" transform="translate(-31.54 -39.76)"/><path class="cls-9" d="M241,426.72c2.6,1.08,5.36,2.29,6.82,4.51a10.2,10.2,0,0,1,1,2.14c.56,1.55,1,3.14,1.43,4.73" transform="translate(-31.54 -39.76)"/><path class="cls-9" d="M244.69,422a24.86,24.86,0,0,1,4.18,3.17,11.34,11.34,0,0,1,2.89,4.34,19.26,19.26,0,0,1,.65,2.92q.5,3.06,1,6.1" transform="translate(-31.54 -39.76)"/><path class="cls-9" d="M249.77,418.79a16.48,16.48,0,0,1,5.49,7.25,32.63,32.63,0,0,1,1.62,8l.3,2.57" transform="translate(-31.54 -39.76)"/><path class="cls-15" d="M213,339.84s-19.61,2.9-27.13,7.23c-11.77,6.76-16.94,17.07-24.44,34.57s-10.54,25.17-10.61,31c-.11,8.54,3.73,17.48,19.43,17.48h50l10.1-23.59-38.95-6.09,10.75-25.17" transform="translate(-31.54 -39.76)"/><polyline class="cls-9" points="198.88 366.73 159.93 360.63 170.68 335.47"/><path class="cls-9" d="M177.64,404c.3,0,6.22-3.7,13.83-3.6" transform="translate(-31.54 -39.76)"/><line class="cls-9" x1="188.13" y1="365.05" x2="177.45" y2="390.32"/><path class="cls-9" d="M243.43,345.85a24.6,24.6,0,0,0,.07-8.35" transform="translate(-31.54 -39.76)"/><path class="cls-9" d="M201.93,345.18a23.41,23.41,0,0,0,12.16,12.16c6.57,2.88,15.49,3.41,21.77-.44a15.86,15.86,0,0,0,6.22-6.84" transform="translate(-31.54 -39.76)"/><path class="cls-9" d="M312.54,355.3a119.13,119.13,0,0,0,31.54-23.36" transform="translate(-31.54 -39.76)"/><path class="cls-9" d="M334.38,349.64a134,134,0,0,0,15.9-14.5" transform="translate(-31.54 -39.76)"/><path class="cls-9" d="M146.59,397.89A65.69,65.69,0,0,0,144,422.94" transform="translate(-31.54 -39.76)"/><path class="cls-9" d="M138.77,399.09a49,49,0,0,0-2.64,14.09" transform="translate(-31.54 -39.76)"/><path class="cls-16" d="M219.59,315.73l-10.73,7.18,2.32,7.67L208,342.14a2.56,2.56,0,0,0,.35,2.15,21,21,0,0,0,18,9.09c11.39,0,11.23-7.57,11.23-7.57l2.08-16.09" transform="translate(-31.54 -39.76)"/><path class="cls-16" d="M241.16,314.77c-2.95-5.5-4.63-8.9-7.73-12.68-2.62-3.21-7-7.75-11.09-8.65-5.29-1.16-10.27,2.65-14.77,5.44-7.4,4.57-7.27,14.42-4.77,21.75,1.92,5.64,5.89,7.79,10.89,11.23,6.54,4.49,20.77,6.52,26.87,1.6C245.13,329.78,244.28,320.59,241.16,314.77Z" transform="translate(-31.54 -39.76)"/><path d="M225.35,314.28a1.32,1.32,0,1,1-1.81-1A1.51,1.51,0,0,1,225.35,314.28Z" transform="translate(-31.54 -39.76)"/><path d="M235.85,308.5a1.32,1.32,0,1,1-1.81-1.06A1.52,1.52,0,0,1,235.85,308.5Z" transform="translate(-31.54 -39.76)"/><path class="cls-9" d="M230.23,312.2a15.84,15.84,0,0,0,4,2.41c.88.4,3.81,1.19,3.16,2.61a10.52,10.52,0,0,1-2.14,2.36" transform="translate(-31.54 -39.76)"/><path class="cls-17" d="M208.77,339.2s1.34-3.42,1.66-4.65c.55-2.07-1.19-2.17-1.79-4a6.08,6.08,0,0,1,.16-3.05c.45-2,1.49-4.28.56-6.32-.59-1.28-1.86-2.1-2.87-3.09s-1.84-2.5-1.23-3.79c.71-1.51,2.84-1.62,4.14-2.68s1.6-2.93,1.51-4.6a22.19,22.19,0,0,1-.18-5,1.55,1.55,0,0,1,.34-.82c.64-.66,1.7,0,2.5.42a5.36,5.36,0,0,0,4.66.1,3,3,0,0,0,1.73-1.64,8.39,8.39,0,0,0,.25-1.5,1.82,1.82,0,0,1,.72-1.29,1.92,1.92,0,0,1,1.06-.2,5.89,5.89,0,0,1,3.23,1.15,3.08,3.08,0,0,0,2.2,1,8.71,8.71,0,0,1,2.79-.07,5.26,5.26,0,0,1,2.57,2.35q2.76,4,5.53,8a15,15,0,0,0,2.31-4.25,5.11,5.11,0,0,0-.67-4.61c-1-1.22-2.66-1.76-3.5-3.08s-.78-3.56-.88-5.21a10.29,10.29,0,0,0-1.69-5.13,5.17,5.17,0,0,0-4.44-2.48,28.71,28.71,0,0,1-3,.54,5.08,5.08,0,0,1-1.82-.49c-2.71-1.16-5.05-3-7.74-4.22s-6.06-1.54-8.39.26c-1.19.92-2,2.33-3.27,3.09-3.74,2.22-9.1-2-12.66.53-2.3,1.61-2.37,5.09-4.31,7.12-2.47,2.59-7,1.91-9.78,4.14s-2.84,6.73-1.14,9.92c.84,1.58,2.06,3.21,1.7,5a7.26,7.26,0,0,1-1.72,2.82,9,9,0,0,0-2,4.3,4.88,4.88,0,0,0,1.5,4.32c.76.64,1.91.94,2.49,1.77a9.17,9.17,0,0,1,.95,3.69,14.4,14.4,0,0,0,.42,2.87c.79,2.53,3.58,4,6.22,4,1.22,0,2.57-.23,3.57.47a6.79,6.79,0,0,1,1.67,2.49,6.76,6.76,0,0,0,8.57,2.57c1.11-.56,2.13-1.45,3.36-1.47S207.61,339.4,208.77,339.2Z" transform="translate(-31.54 -39.76)"/><path class="cls-9" d="M226,336.05c3.3.82,9.57,1,14.32-2" transform="translate(-31.54 -39.76)"/><path class="cls-9" d="M217.08,314c0-3.32,2.18-6.5,5.75-5.87" transform="translate(-31.54 -39.76)"/><path class="cls-9" d="M229.4,305.77a2.85,2.85,0,0,1,1.67-2.6,3,3,0,0,1,3.14.15" transform="translate(-31.54 -39.76)"/><path class="cls-16" d="M214.57,323.61c-1.89-2.31-6.51-1.67-8,.72-3.61,5.73,5.13,13.4,10.47,10.6,1.51-.79,3-2.79,2.29-4.65" transform="translate(-31.54 -39.76)"/><line class="cls-9" x1="177.8" y1="288.86" x2="185.17" y2="289.38"/><path class="cls-9" d="M210.08,322.45a7.72,7.72,0,0,1,4.56.86" transform="translate(-31.54 -39.76)"/><path class="cls-9" d="M209.5,334c2.15,1.42,5.07,2.42,7.43,1.12a4.24,4.24,0,0,0,2.22-4.8" transform="translate(-31.54 -39.76)"/><path class="cls-9" d="M231.38,320.13c-.48,1.78.11,4.11,2.15,4.48a3.34,3.34,0,0,0,3.67-2.15" transform="translate(-31.54 -39.76)"/><path class="cls-18" d="M378.58,62.77H614a0,0,0,0,1,0,0V173a6.27,6.27,0,0,1-6.27,6.27H384.85a6.27,6.27,0,0,1-6.27-6.27V62.77A0,0,0,0,1,378.58,62.77Z"/><path class="cls-3" d="M639.29,85.81a6.27,6.27,0,0,1,6.27,6.27V212.72a6.27,6.27,0,0,1-6.27,6.27H416.39a6.27,6.27,0,0,1-6.27-6.27V92.08a6.27,6.27,0,0,1,6.27-6.27h222.9m0-1.5H416.39a7.78,7.78,0,0,0-7.77,7.77V212.72a7.78,7.78,0,0,0,7.77,7.77h222.9a7.78,7.78,0,0,0,7.77-7.77V92.08a7.78,7.78,0,0,0-7.77-7.77Z" transform="translate(-31.54 -39.76)"/><path class="cls-3" d="M421.25,91.07a3.59,3.59,0,1,1-3.58,3.59,3.59,3.59,0,0,1,3.58-3.59m0-1.5a5.09,5.09,0,1,0,5.09,5.09,5.1,5.1,0,0,0-5.09-5.09Z" transform="translate(-31.54 -39.76)"/><path class="cls-3" d="M435.17,91.07a3.59,3.59,0,1,1-3.59,3.59,3.58,3.58,0,0,1,3.59-3.59m0-1.5a5.09,5.09,0,1,0,5.08,5.09,5.1,5.1,0,0,0-5.08-5.09Z" transform="translate(-31.54 -39.76)"/><line class="cls-5" x1="378.58" y1="62.77" x2="614.02" y2="62.77"/><path class="cls-19" d="M613.41,198.17c-4.41-7.36-9.08-15-16.32-19.5s-17.84-4.66-23.25,2c-4.79,5.89-3.9,14.47-2.75,22a95.82,95.82,0,0,0-18.51-18c-5.35-3.94-11.25-7.36-17.74-8.6-6.74-1.28-14.44.13-20,4.3-7.55,5.7-7.44,14.66-6.7,23.3-9.16-17.37-19.35-34.61-33.46-48.49-3.65-3.6-7.94-6.71-12.88-8.09-2.83-.79-6-.94-8.56.54-3.86,2.25-4.88,7.33-5,11.8a58,58,0,0,0,1.84,16,17.37,17.37,0,0,0-9.27-5.28,14.22,14.22,0,0,0-16.69,13c-.48,8.72,4.82,17,8.88,24.37,1.54,2.79,3.13,5.58,4.88,8.25.34.52,1.64,3.11,2.43,3.11H625.09C621.2,212.4,617.3,204.67,613.41,198.17Z" transform="translate(-31.54 -39.76)"/><g class="cls-20"><polygon class="cls-3" points="598.04 170.97 536.25 52.55 518.69 51.52 504.9 62.77 469.43 88.56 509.31 205.42 598.04 170.97"/><path class="cls-9" d="M513.49,126.62a15,15,0,0,0,12.63,3.08" transform="translate(-31.54 -39.76)"/><path class="cls-9" d="M530.44,128.32a21.5,21.5,0,0,0,14.66-20.9" transform="translate(-31.54 -39.76)"/><path class="cls-21" d="M612.72,166.7c-10.7-20.38-42.78-84.64-51.24-81.47-9.71,3.63-20.64,13-20.64,13s5.24,16.75,5.64,18.33q2.17,8.7,4.49,17.34c3.83,14.36,7.25,28.94,12,43,4.81,14.31,10.14,28.47,15.88,42.44,2.31,5.6,4.16,12.16,8.54,16.54,2.48,2.53,6,4.3,9.49,4a19,19,0,0,0,6.86-2.51c9.54-5,36.15-16.93,36.15-16.93S626.2,192.42,612.72,166.7Z" transform="translate(-31.54 -39.76)"/><path class="cls-21" d="M558.21,245.06c-2.6-9.46-7.05-18.17-10.34-27.37-4.31-12-8.14-24.23-12.59-36.22-6.78-18.29-16.4-43.57-23.76-61.63,0,0-13.5,7.74-16.22,9.62s-2.13,6.35-2.13,6.35c10.75,40.06,43.28,131.05,43.28,131.05,3.86-2,13.41-7.4,17.26-9.44C558.79,254.74,559.67,250.38,558.21,245.06Z" transform="translate(-31.54 -39.76)"/><path class="cls-9" d="M498,127.78c12.48,19.17,22.19,34.77,35.2,53.59" transform="translate(-31.54 -39.76)"/><path class="cls-9" d="M557.78,90.07q3.88,38.15,4.73,76.51" transform="translate(-31.54 -39.76)"/></g><path class="cls-22" d="M428.26,225.81q-3.92,3-8,5.66c-2.64,1.72-5.48,3.18-8.07,5-.65.44-1.24.94-1.84,1.43a38.6,38.6,0,0,0-6.11,5.87,3.8,3.8,0,0,1-.77.83,1.12,1.12,0,0,1-1.07.15,1.4,1.4,0,0,1-.63-1,7.4,7.4,0,0,1,.65-4.74c.41-1,.91-1.88,1.35-2.83a6.5,6.5,0,0,0,.84-2.5c-7,1.72-13.12,5.86-19.72,8.78-1.35.59-4.1.47-4.39-.69-.37-1.53,9.38-6.64,14.06-10.3a63.8,63.8,0,0,0-9.76,3.79,21.49,21.49,0,0,1-6.73,2.35c-1.32.21-4.32.35-3.37-1.87a4,4,0,0,1,1.46-1.52c4.51-3.19,9.66-5.13,14.33-8.08-4.92,1.11-9.68,3.72-14.68,3.11a2.1,2.1,0,0,1-1.34-.52,1.26,1.26,0,0,1-.13-1.78,4.58,4.58,0,0,1,1.88-1.17c5.06-2.11,10.36-4.48,15.42-6.58A62.54,62.54,0,0,0,384,221a15.22,15.22,0,0,1-7.72.25c-.81-.23-1.74-.92-1.43-1.69a1.64,1.64,0,0,1,.91-.76l18.63-8.88c1.75-.83,3.49-1.66,5.26-2.43,3.85-1.65,7.57-3.55,11.43-5.2q6.07-2.61,12.22-5.05" transform="translate(-31.54 -39.76)"/><path class="cls-9" d="M404.46,233.65c1.89-.5,3.8-.94,5.72-1.3" transform="translate(-31.54 -39.76)"/><path class="cls-9" d="M394.27,231.42a85,85,0,0,1,8.14-3.37" transform="translate(-31.54 -39.76)"/><path class="cls-9" d="M390.46,226.06l6.49-2.82" transform="translate(-31.54 -39.76)"/><path class="cls-9" d="M389.17,220.08a37.07,37.07,0,0,0,4.65-2.05" transform="translate(-31.54 -39.76)"/><path class="cls-21" d="M495.3,129.46a70.81,70.81,0,0,0-12.13,9.71c-4.7,5.12-32.37,38.65-32.37,38.65s-28.34,17.09-44.58,26.53L424,233.28s32.92-11.84,49.72-23.63c15.26-10.73,44.48-45.86,44.48-45.86" transform="translate(-31.54 -39.76)"/><line class="cls-9" x1="475.34" y1="138.06" x2="466.44" y2="110.38"/><line class="cls-9" x1="389.63" y1="155.79" x2="409.33" y2="186.4"/><line class="cls-9" x1="387.21" y1="184.99" x2="403.56" y2="177.42"/><path class="cls-9" d="M429.69,216.81a1.36,1.36,0,0,1-2.71.3,1.36,1.36,0,1,1,2.71-.3Z" transform="translate(-31.54 -39.76)"/><circle class="cls-9" cx="390.17" cy="179.3" r="1.37"/><path class="cls-9" d="M450.61,178.24l-.07-.56a39.5,39.5,0,0,0,10.65-5" transform="translate(-31.54 -39.76)"/><path class="cls-9" d="M463.94,145.62a68.43,68.43,0,0,1,19.23-16" transform="translate(-31.54 -39.76)"/><path class="cls-9" d="M468.25,130.9a75.91,75.91,0,0,1,16.46-9.31" transform="translate(-31.54 -39.76)"/><path class="cls-22" d="M522.45,78.25l4,11.72,14.12,13.65s.37,8.13-7.62,16.65-16.51,2.78-16.51,2.78L506.15,108" transform="translate(-31.54 -39.76)"/><path class="cls-22" d="M489.4,108.79c-1.62-5.2-3.67-16.43-3.51-20.7a16,16,0,0,1,3.6-10c3.07-3.6,10.28-2.31,14.89-2.75,7.57-.72,12.29,8.25,14.43,14.67,1.63,4.94,2.41,10,.74,15.06-2.72,8.19-11.45,16.46-20.69,14.23C493.84,118.12,491,113.83,489.4,108.79Z" transform="translate(-31.54 -39.76)"/><path class="cls-17" d="M529.6,76.78c-1.22-1.3-2.88-2.31-3.42-4-.3-.93-.77-3.74-1.07-4.68-1.69-5.22-6.07-7-11-6.11-.54-5-5.83-5.47-10.18-5.52a11.4,11.4,0,0,1-5.28-1.07c-1.72-.92-3.27-2.21-5.28-2.41a8.16,8.16,0,0,0-5.11,1.4c-5.16,3.39-6.63,9.95-13,11.93-2,.63-4.08.82-5.8,2.12a6.07,6.07,0,0,0-2.43,4c-.26,2.29,1.26,3.68,2.82,5.08a7.5,7.5,0,0,1,2.74,6.17,44.65,44.65,0,0,1-.73,4.44,10.65,10.65,0,0,0,4.2,10.75c.74.54,1.75,1,4.48,1.64,1.92.42,6.9-.3,6.9-.3a88.68,88.68,0,0,1-1.2-10A12.27,12.27,0,0,1,488.63,83c1.33-1.81,4.23-2.45,6.39-2.35,3.23.14,6.32,1.92,9.54,1.55a7.28,7.28,0,0,0,3.65-1.56c4.33,2.8,8.81,6.92,9.8,11.94,0,.25.68,3.22.46,3.27,3.71-.78,8.38-1.08,10-5.13.57-1.4.28-2.86.72-4.28.36-1.17,1.41-2,1.9-3.16C532.08,81.15,531.22,78.51,529.6,76.78Z" transform="translate(-31.54 -39.76)"/><path class="cls-22" d="M514.18,92c.19-3.23,4.65-5.59,7.47-4.45,6.8,2.74,4,15-2.45,15.93-1.83.26-4.4-.55-5-2.63" transform="translate(-31.54 -39.76)"/><line class="cls-9" x1="490.4" y1="53.32" x2="484.27" y2="58.45"/><path class="cls-9" d="M517.38,88.14a8.37,8.37,0,0,0-3.46,3.65" transform="translate(-31.54 -39.76)"/><path class="cls-9" d="M525.2,97.89c-1,2.61-2.91,5.33-5.8,5.69a4.58,4.58,0,0,1-5-2.8" transform="translate(-31.54 -39.76)"/><path class="cls-9" d="M511.9,116.44a16.88,16.88,0,0,0,5.48-6.71" transform="translate(-31.54 -39.76)"/><path class="cls-9" d="M494.91,96.38c.31,2.87.62,5.75.95,8.63a1.88,1.88,0,0,0,.38,1.11c1.08,1.15,3.57.6,4.73-.09" transform="translate(-31.54 -39.76)"/><path class="cls-3" d="M503.68,107.21l-5,2.91s1.93,3.69,3.86,3C506.15,111.74,503.68,107.21,503.68,107.21Z" transform="translate(-31.54 -39.76)"/><path class="cls-9" d="M497.44,90.16a4.4,4.4,0,0,1,2.67-2.11,6.64,6.64,0,0,1,5.65.78" transform="translate(-31.54 -39.76)"/><path class="cls-9" d="M485.82,94.33a3.65,3.65,0,0,1,1.54-2.43,3.83,3.83,0,0,1,4.23,0" transform="translate(-31.54 -39.76)"/><path d="M504,94.45a1.6,1.6,0,1,1-2-1.59A1.83,1.83,0,0,1,504,94.45Z" transform="translate(-31.54 -39.76)"/><path d="M492.55,97.86a1.6,1.6,0,1,1-2-1.59A1.81,1.81,0,0,1,492.55,97.86Z" transform="translate(-31.54 -39.76)"/><path class="cls-23" d="M489.53,82.08c-2.14,1.15-3.07,3.66-4.52,5.61a11.62,11.62,0,0,1-10.3,4.57" transform="translate(-31.54 -39.76)"/><path class="cls-23" d="M508.58,80.39a13.44,13.44,0,0,0,3.94-6.73" transform="translate(-31.54 -39.76)"/><path class="cls-24" d="M484.81,180H664.94a0,0,0,0,1,0,0V299a6.27,6.27,0,0,1-6.27,6.27H491.08a6.27,6.27,0,0,1-6.27-6.27V180A0,0,0,0,1,484.81,180Z"/><path class="cls-3" d="M690.21,203a6.27,6.27,0,0,1,6.27,6.27V338.81a6.27,6.27,0,0,1-6.27,6.27H522.61a6.27,6.27,0,0,1-6.27-6.27V209.29a6.27,6.27,0,0,1,6.27-6.27h167.6m0-1.5H522.61a7.78,7.78,0,0,0-7.77,7.77V338.81a7.78,7.78,0,0,0,7.77,7.77h167.6a7.78,7.78,0,0,0,7.77-7.77V209.29a7.78,7.78,0,0,0-7.77-7.77Z" transform="translate(-31.54 -39.76)"/><path class="cls-5" d="M531.07,211.87a3.59,3.59,0,1,1-3.59-3.59A3.59,3.59,0,0,1,531.07,211.87Z" transform="translate(-31.54 -39.76)"/><path class="cls-5" d="M545,211.87a3.59,3.59,0,1,1-3.59-3.59A3.59,3.59,0,0,1,545,211.87Z" transform="translate(-31.54 -39.76)"/><line class="cls-5" x1="484.81" y1="179.98" x2="664.94" y2="179.98"/><path class="cls-7" d="M650.05,296.82c-4.13-.72-5.29,10.37-3.31,14.06-5.44-7.77-12.31-19.67-17.75-27.43-6.09-8.72-13.37-19.57-24.36-22.41-9.9-2.55-15.06,6.07-15.21,14.87a124.57,124.57,0,0,0,2.26,25.2c1.7,9,3.91,19.3,8.82,27.17-5.22-8.37-13.58-11.2-22.91-10.42-4.35.36-8.87,1.82-11.61,5.21-4.4,5.43-2.75,15.28-.88,22h12.25l107.73,0S663.43,299.16,650.05,296.82Z" transform="translate(-31.54 -39.76)"/><path class="cls-16" d="M525.3,281.19c-17.9.27-35.64-3.51-52.76-8.73s-48.32-16.68-48.32-16.68l-8.9,26.89s46.11,29.21,107.47,34.2" transform="translate(-31.54 -39.76)"/><path class="cls-17" d="M563.63,288.5c-11.93-10.12-37.77-9.4-45.18-9.11s-20.61-1.9-20.61-1.9L493,318s27.43,4.6,42.7,5.72" transform="translate(-31.54 -39.76)"/><path class="cls-17" d="M530,298.22c1.87,5.28,1,13,1,18.65,0,5,1.78,7.78,2.52,12.72.88,5.91,4.23,10.13,7.77,15.49h76l-4-42.13L603,288l-21.84-5.83-49.31,13" transform="translate(-31.54 -39.76)"/><path class="cls-25" d="M553.87,288a20,20,0,0,0-.85,8.45c.54,3.24,2.6,5.29,5.54,6.5" transform="translate(-31.54 -39.76)"/><path class="cls-25" d="M562.3,303.84c13.47,2.41,27.64-7.21,29-19.47" transform="translate(-31.54 -39.76)"/><path class="cls-16" d="M663.61,340.22a29,29,0,0,0-5.26-8.53A143.9,143.9,0,0,0,639,312l-25.43,23.14,15.74,15.26-18.38,33.31,24.37,7s18.66-20.61,25.8-32.09C664.56,352.92,665.79,346.55,663.61,340.22Z" transform="translate(-31.54 -39.76)"/><path class="cls-16" d="M615.75,376.23S605.09,391.57,604,394.34a39.8,39.8,0,0,0-1.87,8.25c-1,7.31,2.87,14.82,5.82,18.37a2.24,2.24,0,0,0,1.32.75c1.09.2,1.53-.37,1.51-1.66l1.79,2.44a2.71,2.71,0,0,0,.86.86,1.79,1.79,0,0,0,2-.74,7,7,0,0,0,1-2.37c.63.92,1.62,1.88,2.57,1.32a4.49,4.49,0,0,0,1.55-3.75c.31,1,1.67,1.05,2.41.3a5.91,5.91,0,0,0,1.24-3,27.42,27.42,0,0,1,2.43-8,44.83,44.83,0,0,1,3.19-4.4c3.47-4.78,5.19-10.88,6.31-16.88" transform="translate(-31.54 -39.76)"/><path class="cls-9" d="M622.74,399.88l-1.44,3.19c-.39.86-.78,1.72-1.09,2.62a16.5,16.5,0,0,0,.63,12.35" transform="translate(-31.54 -39.76)"/><path class="cls-9" d="M614.72,399.48c-1,4.83-1.37,10.64-.68,14.27a19.68,19.68,0,0,0,2.74,6.61" transform="translate(-31.54 -39.76)"/><path class="cls-9" d="M607.69,397.66s-.62,3.57-.77,5.58c-.47,6.4.38,12.59,3.87,17.33" transform="translate(-31.54 -39.76)"/><path class="cls-16" d="M422.05,283.13l-5.76-.56a24.85,24.85,0,0,1-5.09-.86,24.59,24.59,0,0,1-3.17-1.36c-4.26-2.08-6.44-2.7-10.52-5.1a65.18,65.18,0,0,0-7.23-3.76c-2.44-1.05-5-1.62-7.24-3.05a1.26,1.26,0,0,1-.49-.48,1,1,0,0,1,0-.53c.52-3.68,8-2.84,11-2a5.8,5.8,0,0,0,2.69.36,6.35,6.35,0,0,0-1-3.32c-1.68-3-4.14-5.42-6.36-8-2.06-2.43-4.14-4.85-6-7.41-1.77-2.39-3.6-7.6-2.21-8.24s.65.63,1.1.69c-.9-.55-.56-2.76.09-3.63s2.43.45,3,1.29c-.64-.81-.42-2.64.24-3,1-.48,2.1.17,3,.71a8.56,8.56,0,0,0,2.79,1.38,6.69,6.69,0,0,1-.46-2.07c.5-.62,1.48-.3,2.17.07,13.91,7.58,25.78,19.06,40.57,25.82" transform="translate(-31.54 -39.76)"/><path class="cls-9" d="M393.23,259.63a24.39,24.39,0,0,1,3.43,8.24" transform="translate(-31.54 -39.76)"/><path class="cls-9" d="M381.68,238.68c1.84,2.29,4.31,3.88,6.46,5.85,3.43,3.14,6.69,6.44,10,9.7" transform="translate(-31.54 -39.76)"/><path class="cls-9" d="M384.76,236.89a32.1,32.1,0,0,0,3.37,2.78c1.26.91,2.59,1.72,3.9,2.57a94.8,94.8,0,0,1,10.65,8.06" transform="translate(-31.54 -39.76)"/><path class="cls-9" d="M391.28,236.52a17.31,17.31,0,0,0,4.1,2.61,63.91,63.91,0,0,1,12.5,8.71" transform="translate(-31.54 -39.76)"/><path class="cls-9" d="M422.61,284s-7.87-1.06-11.08-1.91" transform="translate(-31.54 -39.76)"/><path class="cls-17" d="M596.59,286.33c5.41.52,10.83,1,16,3,6.51,2.46,12.17,7.08,17.5,11.8,5.57,4.94,11.25,11.65,16.67,16.8L619,342.2,599.3,323" transform="translate(-31.54 -39.76)"/><path class="cls-9" d="M629.27,350.38a47.35,47.35,0,0,1,8.27-8.18" transform="translate(-31.54 -39.76)"/><line class="cls-25" x1="579.34" y1="294.56" x2="608.3" y2="271.12"/><line class="cls-25" x1="472.06" y1="279.93" x2="476.26" y2="239.06"/><path class="cls-25" d="M530,312s1.92,8.72,2.44,12.46" transform="translate(-31.54 -39.76)"/><path class="cls-25" d="M598.32,323c6,4.64,20.64,19.23,20.64,19.23" transform="translate(-31.54 -39.76)"/><path class="cls-16" d="M567.42,257.33l13,5.25-.76,8.63,6.52,12.61s-3.18,11.89-17.47,14.85c-12.06,2.5-11.79-5.29-11.79-5.29l-5.74-16.58" transform="translate(-31.54 -39.76)"/><path class="cls-16" d="M540.09,264c1.91-6.47,2.94-10.44,5.39-15.14,2.06-4,5.68-9.73,9.83-11.6,5.34-2.4,11.45.55,16.84,2.5C581,243,583,253.41,582,261.73c-.79,6.39-4.52,9.54-9.06,14.28-5.94,6.2-20.55,11.48-28.1,7.62C539.2,280.74,538.06,270.83,540.09,264Z" transform="translate(-31.54 -39.76)"/><path class="cls-26" d="M632.53,303.08c3.48-1.15,5.19-5.24,5-8.15-.31-4.68-2.5-7.1-2.86-10-.23-1.88.33-3.79.17-5.68A9.38,9.38,0,0,0,629.5,272a17,17,0,0,0-9.17-1.39c-2.4.22-4.8.73-7.18.39a15.55,15.55,0,0,1-5.58-2.16,23.78,23.78,0,0,1-7.83-7.09c-3.35-5-4.07-11.33-6.65-16.79a25.89,25.89,0,0,0-5.28-7.38c-5.26-5.18-10.27-7.1-17.72-7.35-5.11-.17-12.22.51-16.13,5.28,0,0-7.55.19-11.16,4-4.28,4.51-4,11-.23,16.26,1.93-3.17,3.57-6.52,6.4-8.95a1.4,1.4,0,0,0,.25,1.67,2.54,2.54,0,0,0,1.64.69,8.43,8.43,0,0,0,4.57-1.45,9.7,9.7,0,0,0-.6,4,1.34,1.34,0,0,0,.25.81,1.26,1.26,0,0,0,.9.34,6.57,6.57,0,0,0,5.81-2.71c-.61,1.66-1.15,3.74.08,5a3.25,3.25,0,0,0,3.49.49,9.5,9.5,0,0,0,3-2.25c-.43.42.13,2.81.24,3.36a23,23,0,0,0,1,3.54,50.89,50.89,0,0,0,4.84,10.19c2.09,3.29,5.07,5.79,7.2,9,1.35,2,2.49,4.25,4.31,5.88a18.25,18.25,0,0,0,8.24,4.11c3,.6,6,.33,9,.23,11.05-.36,19.43,5.17,29.38,13.31" transform="translate(-31.54 -39.76)"/><path class="cls-26" d="M606.75,231.53a11.25,11.25,0,0,0-2.76-4.11c-4.3-4-13.69-3.71-16.9,1.68-1.77,3-.91,6.77.43,9.94l2.64,5.79a13.3,13.3,0,0,0,12.08.22,9.4,9.4,0,0,0,5.5-8A13.46,13.46,0,0,0,606.75,231.53Z" transform="translate(-31.54 -39.76)"/><path class="cls-16" d="M568.42,265.11c.9-2.68,5.19-3.65,7.31-2.05,5.1,3.86-.05,13.54-5.7,12.86-1.59-.2-3.57-1.47-3.57-3.34" transform="translate(-31.54 -39.76)"/><line class="cls-9" x1="543.18" y1="228.02" x2="536.84" y2="230.94"/><path class="cls-9" d="M572,262.58a7.33,7.33,0,0,0-3.74,2.29" transform="translate(-31.54 -39.76)"/><path class="cls-9" d="M576.36,272.57c-1.42,2-3.66,3.82-6.18,3.47a4,4,0,0,1-3.56-3.5" transform="translate(-31.54 -39.76)"/><path class="cls-9" d="M554.06,285.29a25.9,25.9,0,0,0,12-4.35" transform="translate(-31.54 -39.76)"/><path class="cls-9" d="M547.82,260.72a13.77,13.77,0,0,1-3.42,4.45,5.83,5.83,0,0,0-1,.85,2.13,2.13,0,0,0-.48,1.81,2.16,2.16,0,0,0,1.14,1.49" transform="translate(-31.54 -39.76)"/><path class="cls-9" d="M545.15,273.15a3.25,3.25,0,0,0,3.5.49c1.42-.76,1.45-2.58,1.5-4" transform="translate(-31.54 -39.76)"/><path class="cls-9" d="M554.75,257.21a7.17,7.17,0,0,1,3.16,0,4.79,4.79,0,0,1,2.68,1.62,8.36,8.36,0,0,1,1.33,3.77" transform="translate(-31.54 -39.76)"/><path class="cls-9" d="M543.19,253.26a3.45,3.45,0,0,1,3.46-.23,4.43,4.43,0,0,1,2.24,2.75" transform="translate(-31.54 -39.76)"/><path d="M556.5,263.18c-.41.85-1.23,1.3-1.84,1a1.53,1.53,0,0,1-.37-2.07c.4-.85,1.23-1.3,1.84-1A1.52,1.52,0,0,1,556.5,263.18Z" transform="translate(-31.54 -39.76)"/><path d="M545.27,259.49c-.41.85-1.23,1.3-1.85,1a1.52,1.52,0,0,1-.37-2.06c.41-.85,1.24-1.3,1.85-1A1.54,1.54,0,0,1,545.27,259.49Z" transform="translate(-31.54 -39.76)"/><path class="cls-9" d="M661.77,375.46a47,47,0,0,0,12.32-22.59" transform="translate(-31.54 -39.76)"/><path class="cls-9" d="M675.73,372a33.71,33.71,0,0,0,3.45-11.66" transform="translate(-31.54 -39.76)"/><path class="cls-22" d="M556.45,177.78s-10.41,4.77-17.4,7.94c-3.95,1.79-10.58,6.69-12.84,10.42-2.88,4.75-3.63,10.62-3.3,15.46a23.86,23.86,0,0,0,3.83,10.33c1.42,2.31,2.93,4.71,4.24,4.4s.85-3.54.85-3.54a18.54,18.54,0,0,0,1.92,3.5c.48.32,1,.61,1.54.35a3,3,0,0,0,1.46-1.43,4.94,4.94,0,0,0,.35-1.84,25.27,25.27,0,0,0,0-2.61c.29.65.57,2.67,1.12,2.56a3.93,3.93,0,0,0,1.95-1.17,12.94,12.94,0,0,0,2-4.08,2.76,2.76,0,0,0,.14,1,1,1,0,0,0,.76.63,7.1,7.1,0,0,0,2.48-1.62c1.12-1.53,1.54-3.56,2.35-5.27a18.22,18.22,0,0,1,2.31-3.68A12.66,12.66,0,0,1,553.7,206c2.64-1.39,4.27-1.76,7-3a16.44,16.44,0,0,0,6.09-4.42" transform="translate(-31.54 -39.76)"/><path class="cls-9" d="M541.87,218.67c.21-2.28.48-4.55.84-6.8a18.48,18.48,0,0,1,1.11-4.42,20.27,20.27,0,0,1,4.53-5.91" transform="translate(-31.54 -39.76)"/><path class="cls-9" d="M537.32,221.27a46.23,46.23,0,0,1-.69-11.64,15.67,15.67,0,0,1,.31-3.21,15,15,0,0,1,2.62-4.89" transform="translate(-31.54 -39.76)"/><path class="cls-9" d="M531.94,223.54A52.51,52.51,0,0,1,529.15,212a19.29,19.29,0,0,1-.06-2.28,17.8,17.8,0,0,1,2.42-8.08" transform="translate(-31.54 -39.76)"/><path class="cls-21" d="M565.3,121.34l18.32,34.56-40.88,28,26.91,21.19s45.86-14.93,58.36-22.34c9.8-5.82,14-20.92-4.88-45.55s-31.94-39.25-35.82-43.35C579,85,569.05,81.32,559.8,86" transform="translate(-31.54 -39.76)"/><polyline class="cls-9" points="533.77 81.58 552.08 116.14 511.21 144.13"/><path class="cls-9" d="M566.36,195.55a1.37,1.37,0,1,1-1.37-1.36A1.37,1.37,0,0,1,566.36,195.55Z" transform="translate(-31.54 -39.76)"/><circle class="cls-9" cx="541.89" cy="151.53" r="1.37"/><path class="cls-9" d="M557.17,195.25c.15.12,17.62-8.68,17.62-8.68" transform="translate(-31.54 -39.76)"/><path class="cls-9" d="M558.13,173.35c.17-.12,31.41,25,31.41,25" transform="translate(-31.54 -39.76)"/><path class="cls-9" d="M582.62,156.24c3.84-1.49,7.69-3.11,11.79-3.72a65.81,65.81,0,0,1,13.24-.21" transform="translate(-31.54 -39.76)"/><line class="cls-9" x1="538.11" y1="165.31" x2="591.05" y2="146.07"/><path class="cls-2" d="M578.9,77.35c-10.58-9.94-21.38-19.83-33.89-27.2-23.16-13.64-55.48-11.53-71.45-1.6-12.27,7.62-18.73,17.1-26.6,28.85-9.86,14.71-20.2,30.53-36.45,37.57-7.91,3.43-16.62,4.47-25.09,6.12s-17.13,4.15-23.62,9.84-10.18,15.35-6.68,23.23c2.76,6.2,9.54,10.1,16.31,10.29s13.39-3,18.26-7.66c12.45-12,18.25-43.61-4.75-52.71" transform="translate(-31.54 -39.76)"/><path class="cls-27" d="M76.53,291.57a45.93,45.93,0,0,0,10.16,20c6.51,7.42,19.79,12.22,25.49,1.43,2.66-5,4-13.13-2.34-16.72a3.07,3.07,0,0,0-1.5-.49,2.77,2.77,0,0,0-2.4,2c-1.69,4.55,1,9.47,4.71,13.12a16.35,16.35,0,0,0,6.15,4.12,9.31,9.31,0,0,0,7.61-.47c3.34-2,4.22-6.52,4-9.73" transform="translate(-31.54 -39.76)"/><path class="cls-28" d="M62.55,108.86c5.88-7.42,13.81-14.13,22.72-17.56a31.1,31.1,0,0,1,16.18-1.52c2.53.5,5.47,1.3,7,3.57s-.28,6.85,3,8.21a5,5,0,0,0,2.66.13c2.79-.42,5.51-1.26,8.31-1.67a13.8,13.8,0,0,1,8.29.93c2.52,1.28,4.43,4,4.06,6.84-.15,1.1-.63,2.18-.42,3.27.34,1.82,2.4,2.77,4.24,3,3.82.35,7.45.23,10.7,2.67,2.38,1.8,3.75,5,2.53,7.58" transform="translate(-31.54 -39.76)"/><path class="cls-28" d="M312,101.8c1.49-3.3,3.15-6.61,5.74-9.14s6.29-4.18,9.84-3.49c1.84.36,3.57,1.31,5.44,1.27,2.58,0,4.78-2,5.94-4.33s1.49-4.91,2-7.44c.75-4,2-8.17,4.73-11.21s7.44-4.68,11.14-2.87" transform="translate(-31.54 -39.76)"/><circle class="cls-29" cx="126.64" cy="436.69" r="11.26" transform="translate(-356.5 449.65) rotate(-80.49)"/><circle class="cls-27" cx="286.72" cy="13.19" r="9.13"/><polygon class="cls-14" points="611.63 363.48 617.68 403.35 641.47 385.83 611.63 363.48"/><polygon class="cls-27" points="12.76 319.74 28.85 301.49 1.36 302.48 12.76 319.74"/><circle class="cls-14" cx="38.48" cy="358.41" r="6.52"/><polygon class="cls-30" points="52.4 86.48 36.74 120.66 84.6 113.72 52.4 86.48"/><path class="cls-6" d="M53.22,211.4a4,4,0,1,1-3.95-4A4,4,0,0,1,53.22,211.4Z" transform="translate(-31.54 -39.76)"/><path class="cls-30" d="M589.88,55.52a4,4,0,1,1-4-4A4,4,0,0,1,589.88,55.52Z" transform="translate(-31.54 -39.76)"/><path class="cls-27" d="M662.59,400.77a10.48,10.48,0,0,1,9.43.81c2.36,1.59,3.59,4.56,6.43,5.49,4.16,1.36,7.84-2.52,11.86-2.79,3.47-.23,6.27,2.13,7.63,5.16a24.27,24.27,0,0,1,1.59,8.34" transform="translate(-31.54 -39.76)"/><path class="cls-27" d="M632,129.61a9.83,9.83,0,0,1,9.12-6c2,0,4,.71,5.88.21,5.94-1.54,5.44-11.87,11.31-13.66,4.06-1.24,8.48,2.7,12.46,1.2,3.42-1.28,4.26-5.59,5.35-9.08a26.89,26.89,0,0,1,21.38-18.23" transform="translate(-31.54 -39.76)"/><path class="cls-3" d="M586.75,337.12a6.27,6.27,0,0,1,6.27,6.27v111a6.27,6.27,0,0,1-6.27,6.27H406.89a6.26,6.26,0,0,1-6.27-6.27v-111a6.27,6.27,0,0,1,6.27-6.27H586.75m0-1.5H406.89a7.78,7.78,0,0,0-7.77,7.77v111a7.77,7.77,0,0,0,7.77,7.77H586.75a7.78,7.78,0,0,0,7.77-7.77v-111a7.78,7.78,0,0,0-7.77-7.77Z" transform="translate(-31.54 -39.76)"/><path class="cls-31" d="M369.08,314.08h192.4a0,0,0,0,1,0,0V414.67a6.27,6.27,0,0,1-6.27,6.27H375.35a6.27,6.27,0,0,1-6.27-6.27V314.08A0,0,0,0,1,369.08,314.08Z"/><path class="cls-5" d="M415.34,346a3.59,3.59,0,1,1-3.59-3.59A3.59,3.59,0,0,1,415.34,346Z" transform="translate(-31.54 -39.76)"/><path class="cls-5" d="M429.25,346a3.59,3.59,0,1,1-3.58-3.59A3.58,3.58,0,0,1,429.25,346Z" transform="translate(-31.54 -39.76)"/><line class="cls-5" x1="369.08" y1="314.08" x2="561.48" y2="314.08"/><path class="cls-32" d="M566,436.69c-9.57-10.61-20.7-15.85-26.35-14.57-8.32,1.88-6.81,23.11-6.57,31.64a45.07,45.07,0,0,0-14.54-11.12c-4.16-2-8.91-3.38-13.4-2.28s-8.46,5.32-7.93,9.91a112.65,112.65,0,0,0-41.6-37c-10.54-5.43-39.2-16.74-44.11-5-5.38,12.87,25.15,52.49,25.15,52.49h148S574.67,446.26,566,436.69Z" transform="translate(-31.54 -39.76)"/><path class="cls-33" d="M381.14,323.47c-5.43-5.69-10.65-16.69-12.11-22.55-1.29-5.16-2.44-10.44-4.88-15.21-.66-1.29-3.48-4.26-2.45-5.8,2.06-3.11,7.07,1,8.37,2.84.47.66,2.19,3.45,3.05,3.62s1.23-3.18,1.34-4.62a112.22,112.22,0,0,0,0-17.1c-.48-5.74.34-10.78,2.14-11s1.73.82,2.06,1.18c.29-1.82,1.95-4,3-3.37a2.45,2.45,0,0,1,1,1.92,16.92,16.92,0,0,0,.53,2.16s1-3.88,2.93-1.68c.95,1.1,2.41,7,3.34,8.85a7.9,7.9,0,0,1,0-3.36c.22-.79.66-1.43,1.51-1a1.84,1.84,0,0,1,.82,1.23c.95,2.63,3.28,6.87,4.13,9.54l2.66,8.36c1.66,5.23,3.28,10.74,4.47,16.2,1.11,5.05,5.16,17.5,5.16,17.5" transform="translate(-31.54 -39.76)"/><path class="cls-9" d="M378.57,255.09c.48,3,1.58,6.81,2.18,10.21.86,4.86,1.25,9.37,2,13.66" transform="translate(-31.54 -39.76)"/><path class="cls-9" d="M383.41,255.58c.58,2.56,1.58,6.12,2.24,9,1.12,4.87,1.94,9.25,2.91,13.53" transform="translate(-31.54 -39.76)"/><path class="cls-9" d="M389.41,262.58c1.42,4.66,3.48,10,5.11,15.91" transform="translate(-31.54 -39.76)"/><path class="cls-9" d="M373.67,286.07c-.37,2.46-.55,5.08-2.19,7.23" transform="translate(-31.54 -39.76)"/><path class="cls-34" d="M565,460.7c-1.92-5.14-4-10.54-6.87-15.25a35.6,35.6,0,0,0-11.5-12,56.49,56.49,0,0,0-6.84-3.39l-18.84-8.32-30.82-12-5.71-5.31q-5.52-5.13-11-10.33l-.42-.4c-27.9-26.63-48.65-56.38-66.77-91.09l-32.55,14.27s14.08,48,27.46,68.35c17.67,26.9,38.11,51.37,47.34,59.12q2.47,8.31,5.68,16.36Z" transform="translate(-31.54 -39.76)"/><line class="cls-9" x1="347.37" y1="293.61" x2="382.29" y2="276.82"/><line class="cls-9" x1="349.12" y1="274.05" x2="360.89" y2="299.59"/><path class="cls-35" d="M391.72,319.18a2.31,2.31,0,1,1-2.31-2.31A2.32,2.32,0,0,1,391.72,319.18Z" transform="translate(-31.54 -39.76)"/><path class="cls-35" d="M517.55,460l4.81-6.27a81.75,81.75,0,0,1,5.43-6.58A35.7,35.7,0,0,1,549.45,436" transform="translate(-31.54 -39.76)"/><path class="cls-35" d="M447.51,441.34a41,41,0,0,1,7.58-23.42c6.05-8.57,14.94-14.72,25.69-15" transform="translate(-31.54 -39.76)"/><path class="cls-9" d="M448.33,444c-1.54-4.59-2.42-9.73-4.86-13.94" transform="translate(-31.54 -39.76)"/><path class="cls-33" d="M480.31,406.32l-2,25.6s8.6,8.77,20.44,3.06,20.47-16.57,20.47-16.57l-3.87-15.87" transform="translate(-31.54 -39.76)"/><path class="cls-33" d="M527.35,374.41a20.62,20.62,0,0,0-6.46-9.63c-7.26-5.94-15.24-5.78-23-1.2-6.77,4-16.07,10.26-21.24,16.27-5.33,6.21-8.9,13.92-3.45,21.18,8.76,11.67,33.34,7.71,45.06-1.86,4.78-3.9,9.28-10.23,10-16.46A20.16,20.16,0,0,0,527.35,374.41Z" transform="translate(-31.54 -39.76)"/><path class="cls-33" d="M496.35,366.84c-3.91,2-8.18,2.52-12.46,3-2.06.25-4.78.94-4.41,3.64.24,1.74,1.76,3.24,3,4.3" transform="translate(-31.54 -39.76)"/><path class="cls-10" d="M479.31,393.43l1.07-2.4c.68-1.55-1.54-2.59-2.6-3.12-.76-.38-1.17-.73-1.94-.22-.19.13-1.31,1.2-1.55,1l-2.06-2.4a19.54,19.54,0,0,0-2.39,10,12,12,0,0,0,3.32,7.57,19.15,19.15,0,0,0,3,2.51c8.07,4.86,18.13,4.49,26.91,1.08a19.29,19.29,0,0,0,7.32-4.6C483.55,402.49,479.31,393.43,479.31,393.43Z" transform="translate(-31.54 -39.76)"/><path class="cls-10" d="M511.35,391.63l-.36-.07c-1.79-.29-3.56,0-5.33-.61a6.5,6.5,0,0,1-3.53-2.63c-.93-1.52.34-2.4,1.57-3.07a23,23,0,0,0,5.08-3.6,9.11,9.11,0,0,0,2.66-9.18c-1.15-3.63-4.72-5.77-7.5-8.07s-6.09-5.67-5-9.52,4.86-5.26,8.54-4.72c2,.29,4,.85,5.94.54,1-.16,2-.53,2.95-.75a8.16,8.16,0,0,1,8.36,2.83c1.31,1.82,1.82,4.41,3.83,5.41a14.42,14.42,0,0,0,3.15.72,7.16,7.16,0,0,1,4.81,4.15,8.66,8.66,0,0,1,.06,6.43c-1.41,3.69-3.51,5.54-1.78,9.61,4,9.46,5.69,21.07-3.88,27.87-2.52,1.78-5.68,2.71-7.77,5-1.31,1.41-2.38,3.43-4.29,3.63a4.26,4.26,0,0,1-3.38-1.6,17.79,17.79,0,0,1-2-2.83,10.85,10.85,0,0,1-1.89-4.39c-.25-2.28.94-4.44,2-6.46s3.06-5.87.64-7.45A8.89,8.89,0,0,0,511.35,391.63Z" transform="translate(-31.54 -39.76)"/><path class="cls-10" d="M505.44,371c-.6-1.83-1.7-3.65-3.4-2.82a1.48,1.48,0,0,0-.74,1.14,4.42,4.42,0,0,0,.11,1.4,17.46,17.46,0,0,0,2,6.27,2.45,2.45,0,0,0,.91,1C507,379.24,505.78,372,505.44,371Z" transform="translate(-31.54 -39.76)"/><path class="cls-3" d="M488.63,383.35l-7.52-1.7s-.74,6.45,2.46,7.09S488.63,383.35,488.63,383.35Z" transform="translate(-31.54 -39.76)"/><path class="cls-9" d="M480.66,375.78a5.66,5.66,0,0,0,2.42,1.82" transform="translate(-31.54 -39.76)"/><path class="cls-9" d="M489,369.16a23.07,23.07,0,0,0,8-2.77" transform="translate(-31.54 -39.76)"/><path class="cls-33" d="M509.6,391.89c2.77-2.09,7.81-.09,8.85,3,2.49,7.48-9.5,13.72-14.76,9.09-1.49-1.31-2.61-4-1.3-5.89" transform="translate(-31.54 -39.76)"/><line class="cls-9" x1="482.59" y1="359.23" x2="474.11" y2="357.79"/><path class="cls-9" d="M515,391.82a9,9,0,0,0-5.39-.29" transform="translate(-31.54 -39.76)"/><path class="cls-9" d="M502.58,398.19a4.78,4.78,0,0,0,.36,5.11c1.88,2.74,6.41,2.75,9.15,1.58" transform="translate(-31.54 -39.76)"/><path d="M497.56,377.17c-1.07.78-2.39.78-2.95,0s-.14-2,.94-2.79,2.39-.78,2.94,0S498.63,376.39,497.56,377.17Z" transform="translate(-31.54 -39.76)"/><path class="cls-34" d="M523.36,417.58c-27,3.2-43.55,15.57-43.55,15.57l4.7,21.46c24.16-23,47.67-28.15,47.9-28.4Z" transform="translate(-31.54 -39.76)"/><path class="cls-34" d="M479,419.44,468.85,426s-1.75,18.25,1.59,28l9.37-20.78Z" transform="translate(-31.54 -39.76)"/><path class="cls-9" d="M479.81,433.15l4.7,21.46c24.16-23,47.67-28.15,47.9-28.4" transform="translate(-31.54 -39.76)"/><path class="cls-9" d="M479,419.44,468.85,426s-1.75,18.25,1.59,28l9.37-20.78" transform="translate(-31.54 -39.76)"/><path class="cls-9" d="M378.77,361.4a112.36,112.36,0,0,0,12,27.67" transform="translate(-31.54 -39.76)"/><path class="cls-9" d="M379.66,378.07a177.25,177.25,0,0,0,6.15,18.4" transform="translate(-31.54 -39.76)"/><path class="cls-9" d="M546.46,391.15a20.14,20.14,0,0,1-4.24,12.4,37.69,37.69,0,0,1-9.88,8.86" transform="translate(-31.54 -39.76)"/><path class="cls-9" d="M543.43,412.26a25.69,25.69,0,0,0,9.14-8.83" transform="translate(-31.54 -39.76)"/></g></svg>