<svg id="Layer_1" data-name="Layer 1" xmlns="http://www.w3.org/2000/svg" viewBox="0 0 417.68001 358.57162"><defs><style>.cls-1,.cls-12,.cls-5{fill:#fff;}.cls-1{stroke:#698acc;stroke-linecap:round;stroke-linejoin:round;stroke-width:2px;}.cls-2{fill:#698acc;}.cls-3{fill:#99b5c6;opacity:0.3;}.cls-12,.cls-3,.cls-4,.cls-7{isolation:isolate;}.cls-4{fill:#c1c1c1;}.cls-4,.cls-7{opacity:0.5;}.cls-6{fill:#0a1d35;}.cls-7{fill:#9abad8;}.cls-12,.cls-8{opacity:0.2;}.cls-9{fill:#eaeaea;}.cls-10{fill:#ff6724;}.cls-11{fill:#2e4bff;}</style></defs><g id="OBJECTS"><polygon class="cls-1" points="31.51 306.353 112.08 279.293 74.89 168.563 12.59 189.483 1 215.513 31.51 306.353"/><polygon class="cls-2" points="12.59 189.483 19.27 209.373 1 215.513 12.59 189.483"/><polygon class="cls-3" points="12.59 189.483 19.27 209.373 1 215.513 22.04 211.103 12.59 189.483"/><rect class="cls-4" x="55.8051" y="216.3354" width="23" height="3.45001" transform="translate(-65.93995 19.00028) rotate(-18.57)"/><rect class="cls-4" x="42.38716" y="224.10971" width="38.32" height="1.72" transform="translate(-68.4401 17.52632) rotate(-18.57)"/><rect class="cls-4" x="63.41313" y="287.04603" width="38.32" height="1.72" transform="translate(-87.38827 27.49907) rotate(-18.57)"/><rect class="cls-4" x="80.4536" y="287.41925" width="21.85" height="1.73001" transform="translate(-87.05027 30.32298) rotate(-18.57)"/><rect class="cls-4" x="17.68516" y="241.68482" width="68.22" height="3.07001" transform="translate(-74.75981 15.37085) rotate(-18.57)"/><rect class="cls-4" x="19.67685" y="247.60286" width="68.22" height="3.07001" transform="translate(-76.5408 16.31325) rotate(-18.57)"/><rect class="cls-4" x="21.65905" y="253.52407" width="68.22" height="3.07001" transform="translate(-78.32328 17.2528) rotate(-18.57)"/><rect class="cls-4" x="23.64076" y="259.44211" width="68.22" height="3.07001" transform="translate(-80.10478 18.19202) rotate(-18.57)"/><rect class="cls-4" x="25.64244" y="265.36013" width="68.22001" height="3.07001" transform="translate(-81.88523 19.1376) rotate(-18.57)"/><rect class="cls-4" x="27.63413" y="271.27818" width="68.22" height="3.07001" transform="translate(-83.66622 20.08) rotate(-18.57)"/><rect class="cls-4" x="29.62582" y="277.1962" width="68.21999" height="3.07001" transform="translate(-85.44719 21.0224) rotate(-18.57)"/><rect class="cls-4" x="31.60753" y="283.12425" width="68.22001" height="3.07001" transform="translate(-87.23188 21.96215) rotate(-18.57)"/><rect class="cls-4" x="43.31077" y="226.97984" width="38.32" height="1.73001" transform="translate(-69.27341 17.94715) rotate(-18.56)"/><rect class="cls-4" x="44.29659" y="229.78575" width="38.32" height="1.72" transform="translate(-70.14829 18.42992) rotate(-18.57)"/><path class="cls-5" d="M356.33,264.95a1,1,0,0,1-.94-.7l-3.72-11.65a9,9,0,0,1-8.29-9V209.67a9,9,0,0,1,9-9h55.28a9,9,0,0,1,9,9V243.6a9,9,0,0,1-9,9H361.33l-4,11.64a1,1,0,0,1-.95.68Z" transform="translate(0 -13.78716)"/><path class="cls-2" d="M407.68,201.64a8,8,0,0,1,8,8v33.93a8,8,0,0,1-8,8H360.57l-4.24,12.38-3.93-12.32a8,8,0,0,1-8-8V209.67a8,8,0,0,1,8-8h55.28m0-2H352.4a10,10,0,0,0-10,10V243.6a10,10,0,0,0,8.53,9.92l3.53,11a2,2,0,0,0,1.87,1.43h0a2,2,0,0,0,1.9-1.35l3.76-11h45.69a10,10,0,0,0,10-10V209.67A10,10,0,0,0,407.68,199.67Z" transform="translate(0 -13.78716)"/><path class="cls-2" d="M364.74,225.83a4.29,4.29,0,1,0,4.29-4.29h-.01a4.28,4.28,0,0,0-4.28,4.28Z" transform="translate(0 -13.78716)"/><path class="cls-2" d="M376.33,225.83a4.285,4.285,0,1,0,0-.01Z" transform="translate(0 -13.78716)"/><path class="cls-2" d="M388,225.83a4.285,4.285,0,1,0,0-.01Z" transform="translate(0 -13.78716)"/><path class="cls-1" d="M371.94,58.35A16.26,16.26,0,0,0,346.1,45.18V44.7a29.94,29.94,0,0,0-59.57-4.27A19.76,19.76,0,1,0,272.26,74.6h84A16.28,16.28,0,0,0,371.94,58.35Z" transform="translate(0 -13.78716)"/><path class="cls-1" d="M410.7,110.67a9.14,9.14,0,0,0-14.52-7.4v-.26a16.82,16.82,0,0,0-33.46-2.4,11.1,11.1,0,1,0-8,19.19h47.17A9.15,9.15,0,0,0,410.7,110.67Z" transform="translate(0 -13.78716)"/><rect class="cls-5" x="41.12" y="47.97284" width="117.49" height="13.73" rx="2.45"/><path class="cls-2" d="M156.16,62.75a1.45,1.45,0,0,1,1.45,1.45h0v8.83a1.45,1.45,0,0,1-1.45,1.45H43.57a1.45,1.45,0,0,1-1.45-1.45V64.2a1.45,1.45,0,0,1,1.45-1.45H156.16m0-2H43.57a3.46,3.46,0,0,0-3.45,3.45v8.83a3.46,3.46,0,0,0,3.45,3.45H156.16a3.46,3.46,0,0,0,3.45-3.45V64.2A3.46,3.46,0,0,0,156.16,60.75Z" transform="translate(0 -13.78716)"/><rect class="cls-5" x="41.12" y="30.44284" width="117.49" height="13.73" rx="2.45"/><path class="cls-2" d="M156.16,45.23a1.45,1.45,0,0,1,1.45,1.45V55.5a1.45,1.45,0,0,1-1.45,1.45H43.57a1.45,1.45,0,0,1-1.45-1.45V46.68a1.45,1.45,0,0,1,1.45-1.45H156.16m0-2H43.57a3.45,3.45,0,0,0-3.45,3.45V55.5a3.45,3.45,0,0,0,3.45,3.45H156.16a3.45,3.45,0,0,0,3.45-3.45V46.68A3.45,3.45,0,0,0,156.16,43.23Z" transform="translate(0 -13.78716)"/><rect class="cls-5" x="41.12" y="12.91284" width="117.49" height="13.73" rx="2.45"/><path class="cls-2" d="M156.16,27.7a1.45,1.45,0,0,1,1.45,1.45v8.82a1.45,1.45,0,0,1-1.44,1.46l-.01,0H43.57a1.45,1.45,0,0,1-1.45-1.45l0-.01V29.15a1.45,1.45,0,0,1,1.45-1.45H156.16m0-2H43.57a3.46,3.46,0,0,0-3.45,3.45v8.82a3.46,3.46,0,0,0,3.45,3.46H156.16a3.46,3.46,0,0,0,3.45-3.46V29.15A3.46,3.46,0,0,0,156.16,25.7Z" transform="translate(0 -13.78716)"/><rect class="cls-2" x="45.27" y="17.21284" width="5.14" height="5.14" rx="1.31"/><rect class="cls-2" x="45.27" y="34.73284" width="5.14" height="5.14" rx="1.31"/><rect class="cls-2" x="45.27" y="52.26285" width="5.14" height="5.14" rx="1.31"/><ellipse class="cls-3" cx="205.05" cy="287.50285" rx="94.73" ry="9.92999"/><path class="cls-3" d="M81.84,198.46l-5.88,60.89a6.18,6.18,0,0,0,7.29,6.66l20-3.79-17.9-4.68Z" transform="translate(0 -13.78716)"/><rect class="cls-5" x="162.13" y="243.76283" width="85.84" height="39.62"/><rect class="cls-5" x="136" y="278.43284" width="138.10999" height="9.89999" rx="1.64999"/><rect class="cls-5" x="81.84" y="81.72284" width="246.42001" height="166.72001" rx="4"/><rect class="cls-3" x="161.73" y="248.44285" width="86.24001" height="6.57001"/><rect class="cls-3" x="161.73" y="276.73283" width="86.24001" height="1.70001"/><rect class="cls-6" x="86.48" y="86.67284" width="237.15" height="147.18999"/><rect class="cls-7" x="86.48" y="86.67284" width="237.25999" height="2.67"/><path class="cls-3" d="M272.5,302.12h-135a1.54,1.54,0,0,1-1.54-1.53v-.12H274.1v.05A1.6,1.6,0,0,1,272.5,302.12Z" transform="translate(0 -13.78716)"/><path class="cls-6" d="M207.73,254.87a2.68232,2.68232,0,1,1,0-.01Z" transform="translate(0 -13.78716)"/><path class="cls-5" d="M254.33,225.65l3.52-.69v-7.19l-3.5-.76a15.31042,15.31042,0,0,0-1.31-3.18l2-3-5.08-5.08-3,1.94a14.52976,14.52976,0,0,0-3.17-1.32l-.69-3.52h-7.18l-.77,3.5a15.23119,15.23119,0,0,0-3.17,1.31l-3-2-5.09,5.09,1.94,3a15.73191,15.73191,0,0,0-1.32,3.16l-3.52.7v7.19l3.51.76a15.75939,15.75939,0,0,0,1.3,3.17l-2,3,5.08,5.08,3-1.93a15.232,15.232,0,0,0,3.17,1.31l.69,3.53h7.19l.76-3.51a15.31062,15.31062,0,0,0,3.18-1.31l3,2,5.08-5.09-1.94-3A14.72983,14.72983,0,0,0,254.33,225.65Zm-24.89-4.3a10,10,0,1,1,10,10A10,10,0,0,1,229.44,221.35Z" transform="translate(0 -13.78716)"/><path class="cls-5" d="M301.01,203.61l5.13-1V192.12L301.03,191a21.78966,21.78966,0,0,0-1.9-4.62l2.91-4.35-7.41-7.4-4.41,2.82a22.34034,22.34034,0,0,0-4.61-1.93l-1-5.12H274.12L273,175.5a22.82,22.82,0,0,0-4.62,1.91l-4.34-2.91-7.41,7.41,2.82,4.4a22.07059,22.07059,0,0,0-1.92,4.62l-5.14,1v10.49l5.1,1.11a22.91925,22.91925,0,0,0,1.91,4.62l-2.91,4.35,7.41,7.4,4.4-2.81a22.35917,22.35917,0,0,0,4.62,1.91l1,5.14h10.47l1.12-5.11a22.35917,22.35917,0,0,0,4.62-1.91l4.35,2.92,7.41-7.42-2.82-4.4A22.53915,22.53915,0,0,0,301.01,203.61Zm-36.3-6.35a14.56,14.56,0,1,1,14.56,14.56h0A14.56,14.56,0,0,1,264.71,197.26Z" transform="translate(0 -13.78716)"/><g class="cls-8"><rect class="cls-5" x="135.38" y="104.04284" width="28.14" height="7.11" rx="1.45"/><rect class="cls-5" x="166.39999" y="104.04284" width="58" height="7.11" rx="1.45"/><rect class="cls-5" x="135.38" y="116.29284" width="70.05" height="7.11" rx="1.45"/><rect class="cls-5" x="208.31" y="116.29284" width="27.17" height="7.11" rx="1.45"/><rect class="cls-5" x="135.38" y="128.55284" width="46.97" height="7.11" rx="1.45"/><rect class="cls-5" x="185.23" y="128.55284" width="37.75" height="7.11" rx="1.45"/><rect class="cls-5" x="135.38" y="140.80284" width="59.14999" height="7.11" rx="1.45"/><rect class="cls-5" x="197.41" y="140.80284" width="30.92" height="7.11" rx="1.45"/><rect class="cls-5" x="135.38" y="153.05284" width="45.53" height="7.11" rx="1.45"/><rect class="cls-5" x="183.78999" y="153.05284" width="39.19" height="7.11" rx="1.45"/><rect class="cls-5" x="135.38" y="165.31285" width="73.53" height="7.11" rx="1.45"/><rect class="cls-5" x="211.78999" y="165.31285" width="16.53999" height="7.11" rx="1.45"/><rect class="cls-5" x="135.38" y="177.56285" width="41.50999" height="7.11" rx="1.45"/></g><rect class="cls-5" x="94.34" y="104.04284" width="33.67" height="80.64" rx="3.64"/><circle class="cls-6" cx="111.17" cy="144.36284" r="11.35"/><path class="cls-9" d="M110.06,161.62v-7.27a.33.33,0,0,1,.57-.24l3.66,3.66a.33.33,0,0,1,.00332.46667L114.29,158.24l-3.66,3.66a.33.33,0,0,1-.57-.28Z" transform="translate(0 -13.78716)"/><path class="cls-10" d="M97.23,196.68281h97.29a2.89,2.89,0,0,1,2.89,2.89v23.79a2.89,2.89,0,0,1-2.89,2.89H97.23a2.89,2.89,0,0,1-2.89-2.89v-23.79A2.89,2.89,0,0,1,97.23,196.68281Z"/><path class="cls-6" d="M114.52,234.52H100.05a7.24,7.24,0,1,1,14.47-.538Q114.53,234.25091,114.52,234.52Zm-7.19-16.69a4,4,0,1,0,4,4A4,4,0,0,0,107.33,217.83Z" transform="translate(0 -13.78716)"/><rect class="cls-6" x="125.91" y="204.45285" width="26.87" height="3.67999" rx="1.45"/><rect class="cls-6" x="125.91" y="210.51285" width="41.32001" height="2.25999" rx="1.07001"/><rect class="cls-6" x="125.91" y="214.22284" width="24.47" height="2.25999" rx="1.07001"/><rect class="cls-6" x="151.83" y="214.22284" width="24.47" height="2.25999" rx="1.07001"/><rect class="cls-6" x="125.91" y="217.92285" width="41.32001" height="2.25999" rx="1.07001"/><rect class="cls-6" x="154.74001" y="204.45285" width="30.41" height="3.67999" rx="1.45"/><path class="cls-11" d="M258.25,103.82284h45.79a5.85,5.85,0,0,1,5.85,5.85v25.38a5.85,5.85,0,0,1-5.85,5.85H258.25a5.85,5.85,0,0,1-5.85-5.85v-25.38A5.85,5.85,0,0,1,258.25,103.82284Z"/><rect class="cls-12" x="86.48" y="86.67284" width="237.15" height="10"/><path class="cls-5" d="M318.56,105.46a1.71984,1.71984,0,1,1,0-.01Z" transform="translate(0 -13.78716)"/><circle class="cls-5" cx="311.60001" cy="91.67284" r="1.72"/><circle class="cls-5" cx="306.37" cy="91.67284" r="1.72"/><path class="cls-5" d="M266.17,137.61v-2.18l8.56-3.52v2.92l-4.32,1.69,4.32,1.73v2.86Z" transform="translate(0 -13.78716)"/><path class="cls-5" d="M283.07,129.8h2.84l-7.16,15.33h-2.84Z" transform="translate(0 -13.78716)"/><path class="cls-5" d="M287.55,141.11v-2.9l4.31-1.69-4.31-1.73v-2.88l8.55,3.52v2.18Z" transform="translate(0 -13.78716)"/></g><rect class="cls-5" x="268.3917" y="292.99249" width="13.73" height="117.49" rx="2.45" transform="translate(-130.14336 525.39712) rotate(-76.76922)"/><path class="cls-2" d="M331.402,358.90289a1.45,1.45,0,0,1,1.07964,1.74338h0l-2.021,8.59562a1.45,1.45,0,0,1-1.74337,1.07964L219.11593,344.55262a1.45,1.45,0,0,1-1.07964-1.74337l2.021-8.59562a1.45,1.45,0,0,1,1.74337-1.07964L331.402,358.9029m.45774-1.94691L222.25837,331.18708a3.46,3.46,0,0,0-4.148,2.5688l-2.02095,8.59562a3.46,3.46,0,0,0,2.5688,4.148l109.60143,25.76891a3.46,3.46,0,0,0,4.148-2.56881l2.021-8.59562A3.46,3.46,0,0,0,331.85979,356.956Z" transform="translate(0 -13.78716)"/><rect class="cls-5" x="272.40386" y="275.9278" width="13.73" height="117.49" rx="2.45" transform="translate(-110.43776 516.14376) rotate(-76.76922)"/><path class="cls-2" d="M335.41192,341.84794a1.45,1.45,0,0,1,1.07964,1.74337l-2.01867,8.58588a1.45,1.45,0,0,1-1.74337,1.07965L223.12809,327.48793a1.45,1.45,0,0,1-1.07964-1.74338l2.01867-8.58588a1.45,1.45,0,0,1,1.74337-1.07964l109.60143,25.76891m.45775-1.94692L226.26824,314.13211a3.45,3.45,0,0,0-4.148,2.56881l-2.01867,8.58588a3.45,3.45,0,0,0,2.56881,4.148l109.60142,25.76891a3.45,3.45,0,0,0,4.148-2.56881l2.01866-8.58588A3.45,3.45,0,0,0,335.86967,339.901Z" transform="translate(0 -13.78716)"/><rect class="cls-5" x="276.41602" y="258.86312" width="13.73" height="117.49" rx="2.45" transform="translate(-90.73216 506.89039) rotate(-76.76922)"/><path class="cls-2" d="M339.42408,324.78325a1.45,1.45,0,0,1,1.07964,1.74338l-2.01867,8.58588a1.45,1.45,0,0,1-1.73589,1.09164l-.00977-.00226L227.138,310.433a1.45,1.45,0,0,1-1.07968-1.74336l.00233-.00975,2.01867-8.58588a1.45,1.45,0,0,1,1.74337-1.07964l109.60143,25.76891m.45774-1.94691L230.2804,297.06744a3.46,3.46,0,0,0-4.148,2.5688l-2.01866,8.58589a3.46,3.46,0,0,0,2.56651,4.15777l109.60143,25.76891a3.46,3.46,0,0,0,4.15032-2.57855l2.01867-8.58588A3.46,3.46,0,0,0,339.88182,322.83635Z" transform="translate(0 -13.78716)"/><rect class="cls-2" x="230.06582" y="303.13582" width="5.14" height="5.14" rx="1.31" transform="translate(-118.19963 448.41135) rotate(-76.76922)"/><rect class="cls-2" x="226.05595" y="320.19078" width="5.14" height="5.14" rx="1.31" transform="translate(-137.894 457.65943) rotate(-76.76922)"/><rect class="cls-2" x="222.04379" y="337.25546" width="5.14" height="5.14" rx="1.31" transform="translate(-157.5996 466.9128) rotate(-76.76922)"/></svg>